<mxfile host="app.diagrams.net" modified="2021-03-13T06:39:01.333Z" agent="5.0 (Windows NT 10.0; Win64; x64) AppleWebKit/537.36 (KHTML, like Gecko) Chrome/89.0.4389.82 Safari/537.36 Edg/89.0.774.50" etag="6a7C7yRrHMEdKVzaOAwb" version="14.4.7" type="github">
  <diagram id="gBMcK8XXlve4VoCDwNx-" name="第 1 页">
    <mxGraphModel dx="1002" dy="825" grid="1" gridSize="10" guides="1" tooltips="1" connect="1" arrows="1" fold="1" page="1" pageScale="1" pageWidth="827" pageHeight="1169" math="0" shadow="0">
      <root>
        <mxCell id="0" />
        <mxCell id="1" parent="0" />
        <mxCell id="j_xZL2Bh0vPb1_JvHwk9-1" value="普通桌面服务器" style="rounded=0;whiteSpace=wrap;html=1;" vertex="1" parent="1">
          <mxGeometry x="300" y="240" width="200" height="40" as="geometry" />
        </mxCell>
        <mxCell id="j_xZL2Bh0vPb1_JvHwk9-3" value="" style="image;html=1;image=img/lib/clip_art/computers/Monitor_Tower_128x128.png" vertex="1" parent="1">
          <mxGeometry x="130" y="160" width="80" height="80" as="geometry" />
        </mxCell>
        <mxCell id="j_xZL2Bh0vPb1_JvHwk9-4" value="" style="aspect=fixed;pointerEvents=1;shadow=0;dashed=0;html=1;strokeColor=none;labelPosition=center;verticalLabelPosition=bottom;verticalAlign=top;align=center;fillColor=#00188D;shape=mxgraph.azure.user" vertex="1" parent="1">
          <mxGeometry x="70" y="180" width="47" height="50" as="geometry" />
        </mxCell>
        <mxCell id="j_xZL2Bh0vPb1_JvHwk9-5" value="" style="endArrow=none;dashed=1;html=1;" edge="1" parent="1">
          <mxGeometry width="50" height="50" relative="1" as="geometry">
            <mxPoint x="240" y="750" as="sourcePoint" />
            <mxPoint x="240" y="80" as="targetPoint" />
          </mxGeometry>
        </mxCell>
        <mxCell id="j_xZL2Bh0vPb1_JvHwk9-6" value="Host OS" style="rounded=0;whiteSpace=wrap;html=1;" vertex="1" parent="1">
          <mxGeometry x="300" y="200" width="200" height="40" as="geometry" />
        </mxCell>
        <mxCell id="j_xZL2Bh0vPb1_JvHwk9-7" value="VM" style="rounded=0;whiteSpace=wrap;html=1;fillColor=#d5e8d4;strokeColor=#82b366;" vertex="1" parent="1">
          <mxGeometry x="300" y="140" width="110" height="60" as="geometry" />
        </mxCell>
        <mxCell id="j_xZL2Bh0vPb1_JvHwk9-9" value="VM" style="rounded=0;whiteSpace=wrap;html=1;fillColor=#d5e8d4;strokeColor=#82b366;" vertex="1" parent="1">
          <mxGeometry x="410" y="140" width="90" height="60" as="geometry" />
        </mxCell>
        <mxCell id="j_xZL2Bh0vPb1_JvHwk9-17" value="" style="endArrow=none;html=1;" edge="1" parent="1" source="j_xZL2Bh0vPb1_JvHwk9-3" target="j_xZL2Bh0vPb1_JvHwk9-7">
          <mxGeometry width="50" height="50" relative="1" as="geometry">
            <mxPoint x="260" y="280" as="sourcePoint" />
            <mxPoint x="440" y="330" as="targetPoint" />
          </mxGeometry>
        </mxCell>
        <mxCell id="j_xZL2Bh0vPb1_JvHwk9-18" value="office" style="rounded=0;whiteSpace=wrap;html=1;fillColor=#e1d5e7;strokeColor=#9673a6;" vertex="1" parent="1">
          <mxGeometry x="300" y="80" width="40" height="60" as="geometry" />
        </mxCell>
        <mxCell id="j_xZL2Bh0vPb1_JvHwk9-19" value="OA" style="rounded=0;whiteSpace=wrap;html=1;fillColor=#e1d5e7;strokeColor=#9673a6;" vertex="1" parent="1">
          <mxGeometry x="340" y="80" width="40" height="60" as="geometry" />
        </mxCell>
        <mxCell id="j_xZL2Bh0vPb1_JvHwk9-21" value="2D服务器" style="rounded=0;whiteSpace=wrap;html=1;" vertex="1" parent="1">
          <mxGeometry x="300" y="480" width="200" height="40" as="geometry" />
        </mxCell>
        <mxCell id="j_xZL2Bh0vPb1_JvHwk9-22" value="Host OS" style="rounded=0;whiteSpace=wrap;html=1;" vertex="1" parent="1">
          <mxGeometry x="300" y="440" width="200" height="40" as="geometry" />
        </mxCell>
        <mxCell id="j_xZL2Bh0vPb1_JvHwk9-23" value="VM" style="rounded=0;whiteSpace=wrap;html=1;fillColor=#d5e8d4;strokeColor=#82b366;" vertex="1" parent="1">
          <mxGeometry x="300" y="380" width="110" height="60" as="geometry" />
        </mxCell>
        <mxCell id="j_xZL2Bh0vPb1_JvHwk9-24" value="VM" style="rounded=0;whiteSpace=wrap;html=1;fillColor=#d5e8d4;strokeColor=#82b366;" vertex="1" parent="1">
          <mxGeometry x="410" y="380" width="90" height="60" as="geometry" />
        </mxCell>
        <mxCell id="j_xZL2Bh0vPb1_JvHwk9-25" value="CATIA" style="rounded=0;whiteSpace=wrap;html=1;fillColor=#e1d5e7;strokeColor=#9673a6;" vertex="1" parent="1">
          <mxGeometry x="300" y="320" width="40" height="60" as="geometry" />
        </mxCell>
        <mxCell id="j_xZL2Bh0vPb1_JvHwk9-26" value="" style="rounded=0;whiteSpace=wrap;html=1;fillColor=#e1d5e7;strokeColor=#9673a6;" vertex="1" parent="1">
          <mxGeometry x="340" y="320" width="40" height="60" as="geometry" />
        </mxCell>
        <mxCell id="j_xZL2Bh0vPb1_JvHwk9-27" value="3D服务器" style="rounded=0;whiteSpace=wrap;html=1;" vertex="1" parent="1">
          <mxGeometry x="300" y="700" width="200" height="40" as="geometry" />
        </mxCell>
        <mxCell id="j_xZL2Bh0vPb1_JvHwk9-28" value="Host OS" style="rounded=0;whiteSpace=wrap;html=1;" vertex="1" parent="1">
          <mxGeometry x="300" y="660" width="200" height="40" as="geometry" />
        </mxCell>
        <mxCell id="j_xZL2Bh0vPb1_JvHwk9-29" value="VM" style="rounded=0;whiteSpace=wrap;html=1;fillColor=#d5e8d4;strokeColor=#82b366;" vertex="1" parent="1">
          <mxGeometry x="300" y="600" width="110" height="60" as="geometry" />
        </mxCell>
        <mxCell id="j_xZL2Bh0vPb1_JvHwk9-30" value="VM" style="rounded=0;whiteSpace=wrap;html=1;fillColor=#d5e8d4;strokeColor=#82b366;" vertex="1" parent="1">
          <mxGeometry x="410" y="600" width="90" height="60" as="geometry" />
        </mxCell>
        <mxCell id="j_xZL2Bh0vPb1_JvHwk9-31" value="MATLAB" style="rounded=0;whiteSpace=wrap;html=1;fillColor=#e1d5e7;strokeColor=#9673a6;" vertex="1" parent="1">
          <mxGeometry x="300" y="540" width="40" height="60" as="geometry" />
        </mxCell>
        <mxCell id="j_xZL2Bh0vPb1_JvHwk9-32" value="" style="rounded=0;whiteSpace=wrap;html=1;fillColor=#e1d5e7;strokeColor=#9673a6;" vertex="1" parent="1">
          <mxGeometry x="340" y="540" width="40" height="60" as="geometry" />
        </mxCell>
        <mxCell id="j_xZL2Bh0vPb1_JvHwk9-33" value="IAAS" style="rounded=0;whiteSpace=wrap;html=1;" vertex="1" parent="1">
          <mxGeometry x="600" y="450" width="200" height="40" as="geometry" />
        </mxCell>
        <mxCell id="j_xZL2Bh0vPb1_JvHwk9-34" value="PAAS" style="rounded=0;whiteSpace=wrap;html=1;" vertex="1" parent="1">
          <mxGeometry x="600" y="410" width="200" height="40" as="geometry" />
        </mxCell>
        <mxCell id="j_xZL2Bh0vPb1_JvHwk9-37" value="BS" style="rounded=0;whiteSpace=wrap;html=1;fillColor=#e1d5e7;strokeColor=#9673a6;" vertex="1" parent="1">
          <mxGeometry x="600" y="310" width="40" height="60" as="geometry" />
        </mxCell>
        <mxCell id="j_xZL2Bh0vPb1_JvHwk9-38" value="BS" style="rounded=0;whiteSpace=wrap;html=1;fillColor=#e1d5e7;strokeColor=#9673a6;" vertex="1" parent="1">
          <mxGeometry x="640" y="310" width="40" height="60" as="geometry" />
        </mxCell>
        <mxCell id="j_xZL2Bh0vPb1_JvHwk9-39" value="SAAS" style="rounded=0;whiteSpace=wrap;html=1;" vertex="1" parent="1">
          <mxGeometry x="600" y="370" width="200" height="40" as="geometry" />
        </mxCell>
        <mxCell id="j_xZL2Bh0vPb1_JvHwk9-40" value="BS" style="rounded=0;whiteSpace=wrap;html=1;fillColor=#e1d5e7;strokeColor=#9673a6;" vertex="1" parent="1">
          <mxGeometry x="680" y="310" width="40" height="60" as="geometry" />
        </mxCell>
        <mxCell id="j_xZL2Bh0vPb1_JvHwk9-41" value="BS" style="rounded=0;whiteSpace=wrap;html=1;fillColor=#e1d5e7;strokeColor=#9673a6;" vertex="1" parent="1">
          <mxGeometry x="720" y="310" width="40" height="60" as="geometry" />
        </mxCell>
        <mxCell id="j_xZL2Bh0vPb1_JvHwk9-43" value="BS" style="rounded=0;whiteSpace=wrap;html=1;fillColor=#e1d5e7;strokeColor=#9673a6;" vertex="1" parent="1">
          <mxGeometry x="760" y="310" width="40" height="60" as="geometry" />
        </mxCell>
        <mxCell id="j_xZL2Bh0vPb1_JvHwk9-44" value="" style="image;html=1;image=img/lib/clip_art/computers/Monitor_Tower_128x128.png" vertex="1" parent="1">
          <mxGeometry x="140" y="360" width="80" height="80" as="geometry" />
        </mxCell>
        <mxCell id="j_xZL2Bh0vPb1_JvHwk9-45" value="" style="aspect=fixed;pointerEvents=1;shadow=0;dashed=0;html=1;strokeColor=none;labelPosition=center;verticalLabelPosition=bottom;verticalAlign=top;align=center;fillColor=#00188D;shape=mxgraph.azure.user" vertex="1" parent="1">
          <mxGeometry x="80" y="380" width="47" height="50" as="geometry" />
        </mxCell>
        <mxCell id="j_xZL2Bh0vPb1_JvHwk9-46" value="" style="image;html=1;image=img/lib/clip_art/computers/Monitor_Tower_128x128.png" vertex="1" parent="1">
          <mxGeometry x="130" y="580" width="80" height="80" as="geometry" />
        </mxCell>
        <mxCell id="j_xZL2Bh0vPb1_JvHwk9-47" value="" style="aspect=fixed;pointerEvents=1;shadow=0;dashed=0;html=1;strokeColor=none;labelPosition=center;verticalLabelPosition=bottom;verticalAlign=top;align=center;fillColor=#00188D;shape=mxgraph.azure.user" vertex="1" parent="1">
          <mxGeometry x="70" y="600" width="47" height="50" as="geometry" />
        </mxCell>
        <mxCell id="j_xZL2Bh0vPb1_JvHwk9-48" value="" style="endArrow=none;html=1;entryX=0.938;entryY=0.594;entryDx=0;entryDy=0;entryPerimeter=0;exitX=0;exitY=0.75;exitDx=0;exitDy=0;" edge="1" parent="1" source="j_xZL2Bh0vPb1_JvHwk9-25" target="j_xZL2Bh0vPb1_JvHwk9-44">
          <mxGeometry width="50" height="50" relative="1" as="geometry">
            <mxPoint x="390" y="550" as="sourcePoint" />
            <mxPoint x="440" y="500" as="targetPoint" />
          </mxGeometry>
        </mxCell>
        <mxCell id="j_xZL2Bh0vPb1_JvHwk9-49" value="" style="endArrow=none;html=1;exitX=1;exitY=0.375;exitDx=0;exitDy=0;exitPerimeter=0;" edge="1" parent="1" source="j_xZL2Bh0vPb1_JvHwk9-46">
          <mxGeometry width="50" height="50" relative="1" as="geometry">
            <mxPoint x="390" y="550" as="sourcePoint" />
            <mxPoint x="300" y="570" as="targetPoint" />
          </mxGeometry>
        </mxCell>
      </root>
    </mxGraphModel>
  </diagram>
</mxfile>
